<svg xmlns="http://www.w3.org/2000/svg" xmlns:xlink="http://www.w3.org/1999/xlink" fill="none" version="1.1" width="72.01171875" height="25.3828125" viewBox="0 0 72.01171875 25.3828125"><g style="mix-blend-mode:passthrough"><path d="M18.5742,0L16.0195,5.47266L28.7578,5.47266L26.5664,21.2227L28.6172,21.2227L30.1641,19.8516L29.4141,25.3242L19.1484,25.2891L21.457,8.89453L14.4375,8.89453L6.84375,25.3242L0,25.3242L7.62891,8.89453L2.98828,8.89453L3.45703,5.47266L9.21094,5.47266L11.2617,1.04297L10.3711,0L18.5742,0ZM63.4922,0.972656L60.0352,25.3828L32.6719,25.3828L35.9531,2.33203L34.7578,0.972656L63.4922,0.972656ZM55.0312,21.9727L57.5508,4.39453L41.1328,4.39453L38.6133,21.9727L55.0312,21.9727ZM52.6172,5.44922L50.6719,9.22266L55.8633,9.22266L55.3945,12.6328L53.1562,12.6328L54.4922,21.2109L49.3828,21.2109L48.2227,14.0391L44.5547,21.2109L39.4453,21.2109L43.8047,12.6328L40.9922,12.6328L41.4609,9.22266L45.5625,9.22266L47.4727,5.44922L52.6172,5.44922ZM66.5391,19.7227L72.0117,19.7227L71.4375,23.4727L65.9648,23.4727L66.5391,19.7227Z" fill="#0F0F14" fill-opacity="1"/></g></svg>