<svg xmlns="http://www.w3.org/2000/svg" xmlns:xlink="http://www.w3.org/1999/xlink" fill="none" version="1.1" viewBox="0 0 160 160.004150390625"><g><path d="M30.8135,153.857C27.8533,155.567,24.8085,157.126,21.6907,158.528L21.7347,158.638C8.84203,154.617,0.0452169,142.7,0,129.195L0,30.8223C0.0482747,13.8197,13.8196,0.048276,30.8223,0L129.195,0C146.191,0.0579274,159.952,13.8265,160,30.8223L160,78.0445C157.258,80.0308,153.624,82.953,150.666,84.6581C134.269,94.1693,115.498,98.8065,96.5581,98.0258C98.7842,89.6639,100.101,81.0862,100.487,72.4416C101.065,58.8293,94.2023,45.9776,82.5684,38.8865C70.9346,31.7955,56.3668,31.5849,44.5328,38.3367L43.7682,38.7762C32.0016,45.6456,24.8963,58.3656,25.217,71.9869C25.5377,85.6083,33.2337,97.9798,45.3106,104.288C52.989,108.278,61.0762,111.427,69.4315,113.679C60.6392,130.47,47.2432,144.407,30.8135,153.857ZM54.3544,55.497C57.0048,53.9641,60.0111,53.1534,63.0729,53.146C66.3252,53.1569,69.5112,54.0663,72.2792,55.7738C77.8008,59.0696,81.0514,65.1449,80.7296,71.5673C80.3827,79.5752,79.083,87.5132,76.8581,95.2136C69.0782,93.2898,61.5549,90.4471,54.4467,86.7456C48.7637,83.7628,45.1455,77.9323,44.9958,71.5158C44.8461,65.0993,48.1883,59.1064,53.726,55.8617L54.3544,55.497ZM89.6444,117.33C93.8465,117.726,98.0668,117.896,102.287,117.84C122.546,117.556,142.401,112.14,159.999,102.099L159.999,129.195C159.943,146.186,146.185,159.946,129.194,160.004L56.6249,160.004C67.4371,151.185,76.621,140.541,83.7603,128.553C85.9194,124.919,87.8836,121.173,89.6444,117.33Z" fill-rule="evenodd" fill="#FFFFFF" fill-opacity="1"/></g></svg>